<?xml version="1.0" encoding="UTF-8"?><svg xmlns="http://www.w3.org/2000/svg" xmlns:xlink="http://www.w3.org/1999/xlink" fill-opacity="1" color-rendering="auto" color-interpolation="auto" text-rendering="auto" stroke="black" stroke-linecap="square" width="518" stroke-miterlimit="10" shape-rendering="auto" stroke-opacity="1" fill="black" stroke-dasharray="none" font-weight="normal" stroke-width="1" height="628" font-family="'Dialog'" font-style="normal" stroke-linejoin="miter" font-size="12px" stroke-dashoffset="0" image-rendering="auto">
  <!--Generated by ySVG 2.5-->
  <defs id="genericDefs"/>
  <g>
    <defs id="defs1">
      <linearGradient x1="701" gradientUnits="userSpaceOnUse" x2="829.7772" y1="295.808" y2="324.668" id="linearGradient1" spreadMethod="reflect">
        <stop stop-opacity="1" stop-color="rgb(59,72,101)" offset="0%"/>
        <stop stop-opacity="1" stop-color="rgb(59,72,101)" offset="100%"/>
      </linearGradient>
      <linearGradient x1="513.6886" gradientUnits="userSpaceOnUse" x2="724.6886" y1="707.2996" y2="736.1595" id="linearGradient2" spreadMethod="reflect">
        <stop stop-opacity="1" stop-color="rgb(59,72,101)" offset="0%"/>
        <stop stop-opacity="1" stop-color="rgb(59,72,101)" offset="100%"/>
      </linearGradient>
      <linearGradient x1="789.4658" gradientUnits="userSpaceOnUse" x2="1000.4658" y1="707.2996" y2="736.1595" id="linearGradient3" spreadMethod="reflect">
        <stop stop-opacity="1" stop-color="rgb(59,72,101)" offset="0%"/>
        <stop stop-opacity="1" stop-color="rgb(59,72,101)" offset="100%"/>
      </linearGradient>
      <linearGradient x1="717" gradientUnits="userSpaceOnUse" x2="813.7772" y1="376.334" y2="405.1939" id="linearGradient4" spreadMethod="reflect">
        <stop stop-opacity="1" stop-color="rgb(181,187,208)" offset="0%"/>
        <stop stop-opacity="1" stop-color="rgb(181,187,208)" offset="100%"/>
      </linearGradient>
      <linearGradient x1="707.4" gradientUnits="userSpaceOnUse" x2="823.3772" y1="435.1939" y2="464.0538" id="linearGradient5" spreadMethod="reflect">
        <stop stop-opacity="1" stop-color="rgb(181,187,208)" offset="0%"/>
        <stop stop-opacity="1" stop-color="rgb(181,187,208)" offset="100%"/>
      </linearGradient>
      <linearGradient x1="576" gradientUnits="userSpaceOnUse" x2="662.3772" y1="530.7198" y2="559.5798" id="linearGradient6" spreadMethod="reflect">
        <stop stop-opacity="1" stop-color="rgb(181,187,208)" offset="0%"/>
        <stop stop-opacity="1" stop-color="rgb(181,187,208)" offset="100%"/>
      </linearGradient>
      <linearGradient x1="562.8" gradientUnits="userSpaceOnUse" x2="675.5772" y1="648.4397" y2="677.2996" id="linearGradient7" spreadMethod="reflect">
        <stop stop-opacity="1" stop-color="rgb(181,187,208)" offset="0%"/>
        <stop stop-opacity="1" stop-color="rgb(181,187,208)" offset="100%"/>
      </linearGradient>
      <linearGradient x1="545.2" gradientUnits="userSpaceOnUse" x2="693.1772" y1="589.5798" y2="618.4397" id="linearGradient8" spreadMethod="reflect">
        <stop stop-opacity="1" stop-color="rgb(181,187,208)" offset="0%"/>
        <stop stop-opacity="1" stop-color="rgb(181,187,208)" offset="100%"/>
      </linearGradient>
      <linearGradient x1="817.8086" gradientUnits="userSpaceOnUse" x2="969.6259" y1="530.7198" y2="559.5798" id="linearGradient9" spreadMethod="reflect">
        <stop stop-opacity="1" stop-color="rgb(181,187,208)" offset="0%"/>
        <stop stop-opacity="1" stop-color="rgb(181,187,208)" offset="100%"/>
      </linearGradient>
      <linearGradient x1="817.8086" gradientUnits="userSpaceOnUse" x2="969.6259" y1="587.2621" y2="616.1221" id="linearGradient10" spreadMethod="reflect">
        <stop stop-opacity="1" stop-color="rgb(181,187,208)" offset="0%"/>
        <stop stop-opacity="1" stop-color="rgb(181,187,208)" offset="100%"/>
      </linearGradient>
      <linearGradient x1="825.8004" gradientUnits="userSpaceOnUse" x2="911.7942" y1="812.1412" y2="834.4367" id="linearGradient11" spreadMethod="reflect">
        <stop stop-opacity="1" stop-color="rgb(181,187,208)" offset="0%"/>
        <stop stop-opacity="1" stop-color="rgb(181,187,208)" offset="100%"/>
      </linearGradient>
      <linearGradient x1="623.5504" gradientUnits="userSpaceOnUse" x2="701.0778" y1="795.7592" y2="822.4367" id="linearGradient12" spreadMethod="reflect">
        <stop stop-opacity="1" stop-color="rgb(59,72,101)" offset="0%"/>
        <stop stop-opacity="1" stop-color="rgb(59,72,101)" offset="100%"/>
      </linearGradient>
      <linearGradient x1="619.3171" gradientUnits="userSpaceOnUse" x2="705.311" y1="854.8889" y2="877.1844" id="linearGradient13" spreadMethod="reflect">
        <stop stop-opacity="1" stop-color="rgb(59,72,101)" offset="0%"/>
        <stop stop-opacity="1" stop-color="rgb(59,72,101)" offset="100%"/>
      </linearGradient>
      <linearGradient x1="602.3602" gradientUnits="userSpaceOnUse" x2="722.2679" y1="826.7101" y2="849.0056" id="linearGradient14" spreadMethod="reflect">
        <stop stop-opacity="1" stop-color="rgb(59,72,101)" offset="0%"/>
        <stop stop-opacity="1" stop-color="rgb(59,72,101)" offset="100%"/>
      </linearGradient>
      <linearGradient x1="830.0336" gradientUnits="userSpaceOnUse" x2="907.561" y1="840.6517" y2="869.5117" id="linearGradient15" spreadMethod="reflect">
        <stop stop-opacity="1" stop-color="rgb(93,125,213)" offset="0%"/>
        <stop stop-opacity="1" stop-color="rgb(93,125,213)" offset="100%"/>
      </linearGradient>
      <clipPath clipPathUnits="userSpaceOnUse" id="clipPath1">
        <path d="M0 0 L518 0 L518 628 L0 628 L0 0 Z"/>
      </clipPath>
      <clipPath clipPathUnits="userSpaceOnUse" id="clipPath2">
        <path d="M498 280 L1016 280 L1016 908 L498 908 L498 280 Z"/>
      </clipPath>
    </defs>
    <g fill="white" text-rendering="geometricPrecision" shape-rendering="geometricPrecision" transform="translate(-498,-280)" stroke="white">
      <rect x="498" width="518" height="628" y="280" clip-path="url(#clipPath2)" stroke="none"/>
    </g>
    <g fill="url(#linearGradient1)" text-rendering="geometricPrecision" shape-rendering="geometricPrecision" transform="matrix(1,0,0,1,-498,-280)" stroke="url(#linearGradient1)">
      <ellipse rx="64.3886" ry="14.43" clip-path="url(#clipPath2)" cx="765.3886" cy="310.238" stroke="none"/>
    </g>
    <g text-rendering="geometricPrecision" stroke-miterlimit="1.45" shape-rendering="geometricPrecision" transform="matrix(1,0,0,1,-498,-280)" stroke-linecap="butt">
      <ellipse rx="64.3886" fill="none" ry="14.43" clip-path="url(#clipPath2)" cx="765.3886" cy="310.238"/>
      <text x="721.3173" y="314.7732" clip-path="url(#clipPath2)" fill="white" font-family="sans-serif" stroke="none" xml:space="preserve">Raw sequences</text>
    </g>
    <g fill="url(#linearGradient2)" text-rendering="geometricPrecision" shape-rendering="geometricPrecision" transform="matrix(1,0,0,1,-498,-280)" stroke="url(#linearGradient2)">
      <rect x="513.6886" y="707.2996" clip-path="url(#clipPath2)" width="211" rx="14.43" ry="14.43" height="28.8599" stroke="none"/>
    </g>
    <g text-rendering="geometricPrecision" stroke-miterlimit="1.45" shape-rendering="geometricPrecision" transform="matrix(1,0,0,1,-498,-280)" stroke-linecap="butt">
      <rect x="513.6886" y="707.2996" clip-path="url(#clipPath2)" fill="none" width="211" rx="14.43" ry="14.43" height="28.8599"/>
      <text x="518.381" y="726.2648" clip-path="url(#clipPath2)" fill="white" font-family="sans-serif" stroke="none" xml:space="preserve">Formatted taxonomic assignations</text>
    </g>
    <g fill="url(#linearGradient3)" text-rendering="geometricPrecision" shape-rendering="geometricPrecision" transform="matrix(1,0,0,1,-498,-280)" stroke="url(#linearGradient3)">
      <rect x="789.4658" y="707.2996" clip-path="url(#clipPath2)" width="211" rx="14.43" ry="14.43" height="28.8599" stroke="none"/>
    </g>
    <g text-rendering="geometricPrecision" stroke-miterlimit="1.45" shape-rendering="geometricPrecision" transform="matrix(1,0,0,1,-498,-280)" stroke-linecap="butt">
      <rect x="789.4658" y="707.2996" clip-path="url(#clipPath2)" fill="none" width="211" rx="14.43" ry="14.43" height="28.8599"/>
      <text x="795.7373" y="726.2648" clip-path="url(#clipPath2)" fill="white" font-family="sans-serif" stroke="none" xml:space="preserve">Formatted functional assignations</text>
    </g>
    <g font-size="15px" stroke-linecap="butt" transform="matrix(1,0,0,1,-498,-280)" text-rendering="geometricPrecision" font-family="sans-serif" shape-rendering="geometricPrecision" stroke-miterlimit="1.45">
      <text x="864.243" xml:space="preserve" y="356.1699" clip-path="url(#clipPath2)" stroke="none">Pretreatments</text>
    </g>
    <g text-rendering="geometricPrecision" stroke-miterlimit="1.45" shape-rendering="geometricPrecision" transform="matrix(1,0,0,1,-498,-280)" stroke-linecap="butt">
      <rect x="555.8" y="339.668" clip-path="url(#clipPath2)" fill="none" width="412.1544" rx="4" ry="4" height="139.3859"/>
    </g>
    <g fill="url(#linearGradient4)" text-rendering="geometricPrecision" shape-rendering="geometricPrecision" transform="matrix(1,0,0,1,-498,-280)" stroke="url(#linearGradient4)">
      <path d="M717 376.334 L813.7772 376.334 L813.7772 405.1939 L717 405.1939 Z" stroke="none" clip-path="url(#clipPath2)"/>
    </g>
    <g text-rendering="geometricPrecision" stroke-miterlimit="1.45" shape-rendering="geometricPrecision" transform="matrix(1,0,0,1,-498,-280)" stroke-linecap="butt">
      <path fill="none" d="M717 376.334 L813.7772 376.334 L813.7772 405.1939 L717 405.1939 Z" clip-path="url(#clipPath2)"/>
      <text x="722.3427" xml:space="preserve" y="395.2991" clip-path="url(#clipPath2)" font-family="sans-serif" stroke="none">Quality control</text>
    </g>
    <g fill="url(#linearGradient5)" text-rendering="geometricPrecision" shape-rendering="geometricPrecision" transform="matrix(1,0,0,1,-498,-280)" stroke="url(#linearGradient5)">
      <path d="M707.4 435.1939 L823.3772 435.1939 L823.3772 464.0538 L707.4 464.0538 Z" stroke="none" clip-path="url(#clipPath2)"/>
    </g>
    <g text-rendering="geometricPrecision" stroke-miterlimit="1.45" shape-rendering="geometricPrecision" transform="matrix(1,0,0,1,-498,-280)" stroke-linecap="butt">
      <path fill="none" d="M707.4 435.1939 L823.3772 435.1939 L823.3772 464.0538 L707.4 464.0538 Z" clip-path="url(#clipPath2)"/>
      <text x="715.291" xml:space="preserve" y="454.159" clip-path="url(#clipPath2)" font-family="sans-serif" stroke="none">Sequence sorting</text>
    </g>
    <g text-rendering="geometricPrecision" stroke-miterlimit="1.45" shape-rendering="geometricPrecision" transform="matrix(1,0,0,1,-498,-280)" stroke-linecap="butt">
      <path fill="none" d="M765.3886 324.6682 L765.3886 368.3378" clip-path="url(#clipPath2)"/>
      <path d="M765.3886 376.3378 L770.3886 364.3378 L765.3886 367.3378 L760.3886 364.3378 Z" clip-path="url(#clipPath2)" stroke="none"/>
      <path fill="none" d="M765.3886 405.2203 L765.3886 427.184" clip-path="url(#clipPath2)"/>
      <path d="M765.3886 435.184 L770.3886 423.184 L765.3886 426.184 L760.3886 423.184 Z" clip-path="url(#clipPath2)" stroke="none"/>
      <text x="532.2" font-size="15px" y="510.5558" clip-path="url(#clipPath2)" font-family="sans-serif" stroke="none" xml:space="preserve">Taxonomic analysis</text>
      <rect x="530.2" y="494.0538" clip-path="url(#clipPath2)" fill="none" width="177.9772" rx="4" ry="4" height="198.2458"/>
    </g>
    <g fill="url(#linearGradient6)" text-rendering="geometricPrecision" shape-rendering="geometricPrecision" transform="matrix(1,0,0,1,-498,-280)" stroke="url(#linearGradient6)">
      <path d="M576 530.7198 L662.3772 530.7198 L662.3772 559.5798 L576 559.5798 Z" stroke="none" clip-path="url(#clipPath2)"/>
    </g>
    <g text-rendering="geometricPrecision" stroke-miterlimit="1.45" shape-rendering="geometricPrecision" transform="matrix(1,0,0,1,-498,-280)" stroke-linecap="butt">
      <path fill="none" d="M576 530.7198 L662.3772 530.7198 L662.3772 559.5798 L576 559.5798 Z" clip-path="url(#clipPath2)"/>
      <text x="583.3878" xml:space="preserve" y="549.685" clip-path="url(#clipPath2)" font-family="sans-serif" stroke="none">OTU picking</text>
    </g>
    <g fill="url(#linearGradient7)" text-rendering="geometricPrecision" shape-rendering="geometricPrecision" transform="matrix(1,0,0,1,-498,-280)" stroke="url(#linearGradient7)">
      <path d="M562.8 648.4397 L675.5772 648.4397 L675.5772 677.2996 L562.8 677.2996 Z" stroke="none" clip-path="url(#clipPath2)"/>
    </g>
    <g text-rendering="geometricPrecision" stroke-miterlimit="1.45" shape-rendering="geometricPrecision" transform="matrix(1,0,0,1,-498,-280)" stroke-linecap="butt">
      <path fill="none" d="M562.8 648.4397 L675.5772 648.4397 L675.5772 677.2996 L562.8 677.2996 Z" clip-path="url(#clipPath2)"/>
      <text x="568.9152" xml:space="preserve" y="667.4048" clip-path="url(#clipPath2)" font-family="sans-serif" stroke="none">Diversity analysis</text>
    </g>
    <g fill="url(#linearGradient8)" text-rendering="geometricPrecision" shape-rendering="geometricPrecision" transform="matrix(1,0,0,1,-498,-280)" stroke="url(#linearGradient8)">
      <path d="M545.2 589.5798 L693.1772 589.5798 L693.1772 618.4397 L545.2 618.4397 Z" stroke="none" clip-path="url(#clipPath2)"/>
    </g>
    <g text-rendering="geometricPrecision" stroke-miterlimit="1.45" shape-rendering="geometricPrecision" transform="matrix(1,0,0,1,-498,-280)" stroke-linecap="butt">
      <path fill="none" d="M545.2 589.5798 L693.1772 589.5798 L693.1772 618.4397 L545.2 618.4397 Z" clip-path="url(#clipPath2)"/>
      <text x="551.6681" xml:space="preserve" y="608.5449" clip-path="url(#clipPath2)" font-family="sans-serif" stroke="none">Taxonomic assignation</text>
    </g>
    <g text-rendering="geometricPrecision" stroke-miterlimit="1.45" shape-rendering="geometricPrecision" transform="matrix(1,0,0,1,-498,-280)" stroke-linecap="butt">
      <path fill="none" d="M743.2944 464.0601 L647.9739 526.3417" clip-path="url(#clipPath2)"/>
      <path d="M641.2768 530.7176 L654.0574 528.3395 L648.8111 525.7947 L648.5876 519.9681 Z" clip-path="url(#clipPath2)" stroke="none"/>
      <path fill="none" d="M619.1886 677.326 L619.1886 699.2897" clip-path="url(#clipPath2)"/>
      <path d="M619.1886 707.2897 L624.1886 695.2897 L619.1886 698.2897 L614.1886 695.2897 Z" clip-path="url(#clipPath2)" stroke="none"/>
      <path fill="none" d="M619.1886 559.6061 L619.1886 581.5699" clip-path="url(#clipPath2)"/>
      <path d="M619.1886 589.5699 L624.1886 577.5699 L619.1886 580.5699 L614.1886 577.5699 Z" clip-path="url(#clipPath2)" stroke="none"/>
      <path fill="none" d="M619.1886 618.4661 L619.1886 640.4298" clip-path="url(#clipPath2)"/>
      <path d="M619.1886 648.4298 L624.1886 636.4298 L619.1886 639.4298 L614.1886 636.4298 Z" clip-path="url(#clipPath2)" stroke="none"/>
      <text x="844.7694" font-size="15px" y="510.5558" clip-path="url(#clipPath2)" font-family="sans-serif" stroke="none" xml:space="preserve">Functional analysis</text>
      <rect x="802.8086" y="494.0538" clip-path="url(#clipPath2)" fill="none" width="181.8172" rx="4" ry="4" height="157.9578"/>
    </g>
    <g fill="url(#linearGradient9)" text-rendering="geometricPrecision" shape-rendering="geometricPrecision" transform="matrix(1,0,0,1,-498,-280)" stroke="url(#linearGradient9)">
      <path d="M817.8086 530.7198 L969.6259 530.7198 L969.6259 559.5798 L817.8086 559.5798 Z" stroke="none" clip-path="url(#clipPath2)"/>
    </g>
    <g text-rendering="geometricPrecision" stroke-miterlimit="1.45" shape-rendering="geometricPrecision" transform="matrix(1,0,0,1,-498,-280)" stroke-linecap="butt">
      <path fill="none" d="M817.8086 530.7198 L969.6259 530.7198 L969.6259 559.5798 L817.8086 559.5798 Z" clip-path="url(#clipPath2)"/>
      <text x="824.1196" xml:space="preserve" y="549.685" clip-path="url(#clipPath2)" font-family="sans-serif" stroke="none">Gene family assignation</text>
    </g>
    <g fill="url(#linearGradient10)" text-rendering="geometricPrecision" shape-rendering="geometricPrecision" transform="matrix(1,0,0,1,-498,-280)" stroke="url(#linearGradient10)">
      <path d="M817.8086 587.2621 L969.6259 587.2621 L969.6259 616.1221 L817.8086 616.1221 Z" stroke="none" clip-path="url(#clipPath2)"/>
    </g>
    <g text-rendering="geometricPrecision" stroke-miterlimit="1.45" shape-rendering="geometricPrecision" transform="matrix(1,0,0,1,-498,-280)" stroke-linecap="butt">
      <path fill="none" d="M817.8086 587.2621 L969.6259 587.2621 L969.6259 616.1221 L817.8086 616.1221 Z" clip-path="url(#clipPath2)"/>
      <text x="834.8188" xml:space="preserve" y="606.2272" clip-path="url(#clipPath2)" font-family="sans-serif" stroke="none">Pathway assignation</text>
    </g>
    <g text-rendering="geometricPrecision" stroke-miterlimit="1.45" shape-rendering="geometricPrecision" transform="matrix(1,0,0,1,-498,-280)" stroke-linecap="butt">
      <path fill="none" d="M784.782 464.0601 L867.9119 525.9407" clip-path="url(#clipPath2)"/>
      <path d="M874.3291 530.7176 L867.6888 519.5414 L867.1097 525.3436 L861.7177 527.563 Z" clip-path="url(#clipPath2)" stroke="none"/>
      <path fill="none" d="M893.7172 559.5891 L893.7172 579.2603" clip-path="url(#clipPath2)"/>
      <path d="M893.7172 587.2603 L898.7172 575.2603 L893.7172 578.2603 L888.7172 575.2603 Z" clip-path="url(#clipPath2)" stroke="none"/>
      <path fill="none" d="M893.8675 616.14 L894.7327 699.3198" clip-path="url(#clipPath2)"/>
      <path d="M894.8159 707.3193 L899.6909 695.268 L894.7224 698.3198 L889.6914 695.372 Z" clip-path="url(#clipPath2)" stroke="none"/>
      <text x="893.1052" font-size="9px" y="776.8607" clip-path="url(#clipPath2)" font-family="sans-serif" stroke="none" xml:space="preserve">Legend</text>
      <rect x="587.3603" y="766.1596" clip-path="url(#clipPath2)" fill="none" width="339.4339" rx="4" ry="4" height="126.0249"/>
    </g>
    <g fill="url(#linearGradient11)" text-rendering="geometricPrecision" shape-rendering="geometricPrecision" transform="matrix(1,0,0,1,-498,-280)" stroke="url(#linearGradient11)">
      <path d="M825.8004 812.1412 L911.7942 812.1412 L911.7942 834.4367 L825.8004 834.4367 Z" stroke="none" clip-path="url(#clipPath2)"/>
    </g>
    <g text-rendering="geometricPrecision" stroke-miterlimit="1.45" shape-rendering="geometricPrecision" transform="matrix(1,0,0,1,-498,-280)" stroke-linecap="butt">
      <path fill="none" d="M825.8004 812.1412 L911.7942 812.1412 L911.7942 834.4367 L825.8004 834.4367 Z" clip-path="url(#clipPath2)"/>
      <text x="840.5119" font-size="9px" y="826.6903" clip-path="url(#clipPath2)" font-family="sans-serif" stroke="none" xml:space="preserve">Data process</text>
    </g>
    <g fill="url(#linearGradient12)" text-rendering="geometricPrecision" shape-rendering="geometricPrecision" transform="matrix(1,0,0,1,-498,-280)" stroke="url(#linearGradient12)">
      <ellipse rx="38.7637" ry="13.3388" clip-path="url(#clipPath2)" cx="662.3141" cy="809.0979" stroke="none"/>
    </g>
    <g text-rendering="geometricPrecision" stroke-miterlimit="1.45" shape-rendering="geometricPrecision" transform="matrix(1,0,0,1,-498,-280)" stroke-linecap="butt">
      <ellipse rx="38.7637" fill="none" ry="13.3388" clip-path="url(#clipPath2)" cx="662.3141" cy="809.0979"/>
    </g>
    <g stroke-linecap="butt" font-size="9px" transform="matrix(1,0,0,1,-498,-280)" fill="white" text-rendering="geometricPrecision" font-family="sans-serif" shape-rendering="geometricPrecision" stroke="white" stroke-miterlimit="1.45">
      <text x="640.0074" xml:space="preserve" y="812.4993" clip-path="url(#clipPath2)" stroke="none">Input data</text>
    </g>
    <g fill="url(#linearGradient13)" text-rendering="geometricPrecision" shape-rendering="geometricPrecision" transform="matrix(1,0,0,1,-498,-280)" stroke="url(#linearGradient13)">
      <rect x="619.3171" y="854.8889" clip-path="url(#clipPath2)" width="85.9938" rx="11.1478" ry="11.1478" height="22.2955" stroke="none"/>
    </g>
    <g text-rendering="geometricPrecision" stroke-miterlimit="1.45" shape-rendering="geometricPrecision" transform="matrix(1,0,0,1,-498,-280)" stroke-linecap="butt">
      <rect x="619.3171" y="854.8889" clip-path="url(#clipPath2)" fill="none" width="85.9938" rx="11.1478" ry="11.1478" height="22.2955"/>
    </g>
    <g stroke-linecap="butt" font-size="9px" transform="matrix(1,0,0,1,-498,-280)" fill="white" text-rendering="geometricPrecision" font-family="sans-serif" shape-rendering="geometricPrecision" stroke="white" stroke-miterlimit="1.45">
      <text x="636.1248" xml:space="preserve" y="869.438" clip-path="url(#clipPath2)" stroke="none">Output data</text>
    </g>
    <g fill="url(#linearGradient14)" text-rendering="geometricPrecision" shape-rendering="geometricPrecision" transform="matrix(1,0,0,1,-498,-280)" stroke="url(#linearGradient14)">
      <path d="M608.0456 826.7101 L722.2679 826.7101 L716.5825 849.0056 L602.3602 849.0056 Z" stroke="none" clip-path="url(#clipPath2)"/>
    </g>
    <g text-rendering="geometricPrecision" stroke-miterlimit="1.45" shape-rendering="geometricPrecision" transform="matrix(1,0,0,1,-498,-280)" stroke-linecap="butt">
      <path fill="none" d="M608.0456 826.7101 L722.2679 826.7101 L716.5825 849.0056 L602.3602 849.0056 Z" clip-path="url(#clipPath2)"/>
    </g>
    <g stroke-linecap="butt" font-size="9px" transform="matrix(1,0,0,1,-498,-280)" fill="white" text-rendering="geometricPrecision" font-family="sans-serif" shape-rendering="geometricPrecision" stroke="white" stroke-miterlimit="1.45">
      <text x="623.7652" xml:space="preserve" y="841.2592" clip-path="url(#clipPath2)" stroke="none">Intermediary data</text>
    </g>
    <g text-rendering="geometricPrecision" stroke-miterlimit="1.45" shape-rendering="geometricPrecision" transform="matrix(1,0,0,1,-498,-280)" stroke-linecap="butt">
      <path fill="none" d="M755.1351 807.2598 L764.751 807.2598 L764.751 815.3181 L755.1351 815.3181 Z" clip-path="url(#clipPath2)"/>
    </g>
    <g text-rendering="geometricPrecision" stroke-miterlimit="1.45" shape-rendering="geometricPrecision" transform="matrix(1,0,0,1,-498,-280)" stroke-linecap="butt">
      <path fill="none" d="M755.1351 854.8889 L764.751 854.8889 L764.751 862.9473 L755.1351 862.9473 Z" clip-path="url(#clipPath2)"/>
    </g>
    <g fill="url(#linearGradient15)" text-rendering="geometricPrecision" shape-rendering="geometricPrecision" transform="matrix(1,0,0,1,-498,-280)" stroke="url(#linearGradient15)">
      <path d="M830.0336 840.6517 L907.561 840.6517 L907.561 869.5117 L830.0336 869.5117 Z" stroke="none" clip-path="url(#clipPath2)"/>
    </g>
    <g text-rendering="geometricPrecision" stroke-miterlimit="1.45" shape-rendering="geometricPrecision" transform="matrix(1,0,0,1,-498,-280)" stroke-linecap="butt">
      <path fill="none" d="M830.0336 840.6517 L907.561 840.6517 L907.561 869.5117 L830.0336 869.5117 Z" clip-path="url(#clipPath2)"/>
      <text x="837.8093" font-size="9px" y="853.1833" clip-path="url(#clipPath2)" font-family="sans-serif" stroke="none" xml:space="preserve">Optional data </text>
      <text x="851.9597" font-size="9px" y="863.7829" clip-path="url(#clipPath2)" font-family="sans-serif" stroke="none" xml:space="preserve">process</text>
    </g>
    <g text-rendering="geometricPrecision" stroke-miterlimit="1.45" shape-rendering="geometricPrecision" transform="matrix(1,0,0,1,-498,-280)" stroke-linecap="butt">
      <path fill="none" d="M759.943 815.3356 L759.943 846.8748" clip-path="url(#clipPath2)"/>
      <path d="M759.943 854.8748 L764.943 842.8748 L759.943 845.8748 L754.943 842.8748 Z" clip-path="url(#clipPath2)" stroke="none"/>
      <text x="763.943" font-size="9px" y="836.1443" clip-path="url(#clipPath2)" font-family="sans-serif" stroke="none" xml:space="preserve"> Data flow</text>
    </g>
  </g>
</svg>
