<?xml version="1.0" standalone="no"?>
<!DOCTYPE svg PUBLIC "-//W3C//DTD SVG 1.1//EN" "http://www.w3.org/Graphics/SVG/1.1/DTD/svg11.dtd">

<svg style="stroke:black; fill:none; stroke-width:1px; stroke-linejoin:round; text-anchor:left" xmlns="http://www.w3.org/2000/svg" font-family="Helvetica, Arial, FreeSans, Sans, sans, sans-serif" height="1163px" width="1446.0px" version="1.1" xmlns:xlink="http://www.w3.org/1999/xlink" viewBox="0 0 1446.0 1163">

<g>

<g>

<defs>

<marker refY="3.6" refX="1.5" markerUnits="strokeWidth" viewBox="0 0 10.5 7.2" stroke="none" id="conn_1" markerWidth="10.5" fill="black" orient="auto" markerHeight="7.2">

<path d="M 1.5 3.6 L 0 0 L 10.5 3.6 L 0 7.2 L 1.5 3.6 Z" />

</marker>

</defs>

<path marker-end="url(#conn_1)" d="M307.25 421L455 464" />

</g>

<g>

<defs>

<marker refY="3.6" refX="1.5" markerUnits="strokeWidth" viewBox="0 0 10.5 7.2" stroke="none" id="conn_19" markerWidth="10.5" fill="black" orient="auto" markerHeight="7.2">

<path d="M 1.5 3.6 L 0 0 L 10.5 3.6 L 0 7.2 L 1.5 3.6 Z" />

</marker>

</defs>

<path marker-end="url(#conn_19)" d="M307.25 524L455 479" />

</g>

<g>

<defs>

<marker refY="3.6" refX="1.5" markerUnits="strokeWidth" viewBox="0 0 10.5 7.2" stroke="none" id="conn_37" markerWidth="10.5" fill="black" orient="auto" markerHeight="7.2">

<path d="M 1.5 3.6 L 0 0 L 10.5 3.6 L 0 7.2 L 1.5 3.6 Z" />

</marker>

</defs>

<path marker-end="url(#conn_37)" d="M641 579L862 437" />

</g>

<g>

<defs>

<marker refY="3.6" refX="1.5" markerUnits="strokeWidth" viewBox="0 0 10.5 7.2" stroke="none" id="conn_55" markerWidth="10.5" fill="black" orient="auto" markerHeight="7.2">

<path d="M 1.5 3.6 L 0 0 L 10.5 3.6 L 0 7.2 L 1.5 3.6 Z" />

</marker>

</defs>

<path marker-end="url(#conn_55)" d="M641 534L862 422" />

</g>

<g>

<defs>

<marker refY="3.6" refX="1.5" markerUnits="strokeWidth" viewBox="0 0 10.5 7.2" stroke="none" id="conn_73" markerWidth="10.5" fill="black" orient="auto" markerHeight="7.2">

<path d="M 1.5 3.6 L 0 0 L 10.5 3.6 L 0 7.2 L 1.5 3.6 Z" />

</marker>

</defs>

<path marker-end="url(#conn_73)" d="M641 534L879.5 753" />

</g>

<g>

<defs>

<marker refY="3.6" refX="1.5" markerUnits="strokeWidth" viewBox="0 0 10.5 7.2" stroke="none" id="conn_91" markerWidth="10.5" fill="black" orient="auto" markerHeight="7.2">

<path d="M 1.5 3.6 L 0 0 L 10.5 3.6 L 0 7.2 L 1.5 3.6 Z" />

</marker>

</defs>

<path marker-end="url(#conn_91)" d="M641 579L878.5 908" />

</g>

<g>

<defs>

<marker refY="3.6" refX="1.5" markerUnits="strokeWidth" viewBox="0 0 10.5 7.2" stroke="none" id="conn_109" markerWidth="10.5" fill="black" orient="auto" markerHeight="7.2">

<path d="M 1.5 3.6 L 0 0 L 10.5 3.6 L 0 7.2 L 1.5 3.6 Z" />

</marker>

</defs>

<path marker-end="url(#conn_109)" d="M1004 462L1193.5 524" />

</g>

<g>

<defs>

<marker refY="3.6" refX="1.5" markerUnits="strokeWidth" viewBox="0 0 10.5 7.2" stroke="none" id="conn_127" markerWidth="10.5" fill="black" orient="auto" markerHeight="7.2">

<path d="M 1.5 3.6 L 0 0 L 10.5 3.6 L 0 7.2 L 1.5 3.6 Z" />

</marker>

</defs>

<path marker-end="url(#conn_127)" d="M1020.5 933L1124.5 855" />

</g>

<g>

<defs>

<marker refY="3.6" refX="1.5" markerUnits="strokeWidth" viewBox="0 0 10.5 7.2" stroke="none" id="conn_145" markerWidth="10.5" fill="black" orient="auto" markerHeight="7.2">

<path d="M 1.5 3.6 L 0 0 L 10.5 3.6 L 0 7.2 L 1.5 3.6 Z" />

</marker>

</defs>

<path marker-end="url(#conn_145)" d="M1021.5 778L1124.5 840" />

</g>

</g>

<g>

<path d="M195 381L302.25 381L302.25 411L195 411Z" fill="#EBD9B2" />

<path d="M195 411L302.25 411L302.25 431L195 431Z" fill="#ffffff" />

<path d="M195 484L302.25 484L302.25 514L195 514Z" fill="#EBD9B2" />

<path d="M195 514L302.25 514L302.25 534L195 534Z" fill="#ffffff" />

<path d="M460 419L636 419L636 449L460 449Z" fill="#EBD9B2" />

<path d="M460 449L636 449L636 634L460 634Z" fill="#ffffff" />

<path d="M867 377L999 377L999 407L867 407Z" fill="#EBD9B2" />

<path d="M867 407L999 407L999 517L867 517Z" fill="#ffffff" />

<path d="M884.5 708L1016.5 708L1016.5 738L884.5 738Z" fill="#EBD9B2" />

<path d="M884.5 738L1016.5 738L1016.5 788L884.5 788Z" fill="#ffffff" />

<path d="M883.5 863L1015.5 863L1015.5 893L883.5 893Z" fill="#EBD9B2" />

<path d="M883.5 893L1015.5 893L1015.5 943L883.5 943Z" fill="#ffffff" />

<path d="M1198.5 479L1371.75 479L1371.75 509L1198.5 509Z" fill="#EBD9B2" />

<path d="M1198.5 509L1371.75 509L1371.75 619L1198.5 619Z" fill="#ffffff" />

<path d="M1129.5 795L1322 795L1322 825L1129.5 825Z" fill="#EBD9B2" />

<path d="M1129.5 825L1322 825L1322 905L1129.5 905Z" fill="#ffffff" />

</g>

<g>

<text y="401" x="200" stroke="none" font-size="14px" fill="black">Input dataset</text>

<text y="426" x="200" stroke="none" font-size="10px" fill="black">output</text>

<text y="504" x="200" stroke="none" font-size="14px" fill="black">Input dataset</text>

<text y="529" x="200" stroke="none" font-size="10px" fill="black">output</text>

<text y="439" x="465" stroke="none" font-size="14px" fill="black">PRINSEQ</text>

<text y="464" x="465" stroke="none" font-size="10px" fill="black">FASTQ file</text>

<text y="479" x="465" stroke="none" font-size="10px" fill="black">FASTQ file</text>

<text y="509" x="465" stroke="none" font-size="10px" fill="black">good_sequence_file</text>

<text y="524" x="465" stroke="none" font-size="10px" fill="black">rejected_sequence_file</text>

<text y="539" x="465" stroke="none" font-size="10px" fill="black">good_sequences_1_file</text>

<text y="554" x="465" stroke="none" font-size="10px" fill="black">good_sequences_1_singletons_file</text>

<text y="569" x="465" stroke="none" font-size="10px" fill="black">rejected_sequence_1_file</text>

<text y="584" x="465" stroke="none" font-size="10px" fill="black">good_sequences_2_file</text>

<text y="599" x="465" stroke="none" font-size="10px" fill="black">good_sequences_2_singletons_file</text>

<text y="614" x="465" stroke="none" font-size="10px" fill="black">rejected_sequence_2_file</text>

<text y="629" x="465" stroke="none" font-size="10px" fill="black">html_file</text>

<text y="397" x="872" stroke="none" font-size="14px" fill="black">fastq-join</text>

<text y="422" x="872" stroke="none" font-size="10px" fill="black">Read 1 Fastq</text>

<text y="437" x="872" stroke="none" font-size="10px" fill="black">Read 2 Fastq</text>

<text y="467" x="872" stroke="none" font-size="10px" fill="black">outputJoined</text>

<text y="482" x="872" stroke="none" font-size="10px" fill="black">outputUnmatched1</text>

<text y="497" x="872" stroke="none" font-size="10px" fill="black">outputUnmatched2</text>

<text y="512" x="872" stroke="none" font-size="10px" fill="black">outputStitchLengthReport</text>

<text y="728" x="889.5" stroke="none" font-size="14px" fill="black">FASTQ to FASTA</text>

<text y="753" x="889.5" stroke="none" font-size="10px" fill="black">FASTQ Library to convert</text>

<text y="783" x="889.5" stroke="none" font-size="10px" fill="black">output</text>

<text y="883" x="888.5" stroke="none" font-size="14px" fill="black">FASTQ to FASTA</text>

<text y="908" x="888.5" stroke="none" font-size="10px" fill="black">FASTQ Library to convert</text>

<text y="938" x="888.5" stroke="none" font-size="10px" fill="black">output</text>

<text y="499" x="1203.5" stroke="none" font-size="14px" fill="black">Filter with SortMeRNA</text>

<text y="524" x="1203.5" stroke="none" font-size="10px" fill="black">Querying sequences</text>

<text y="554" x="1203.5" stroke="none" font-size="10px" fill="black">output_fastx</text>

<text y="569" x="1203.5" stroke="none" font-size="10px" fill="black">output_other</text>

<text y="584" x="1203.5" stroke="none" font-size="10px" fill="black">output_sam</text>

<text y="599" x="1203.5" stroke="none" font-size="10px" fill="black">output_blast</text>

<text y="614" x="1203.5" stroke="none" font-size="10px" fill="black">output_log</text>

<text y="815" x="1134.5" stroke="none" font-size="14px" fill="black">Reago</text>

<text y="840" x="1134.5" stroke="none" font-size="10px" fill="black">R1 input sequence              file</text>

<text y="855" x="1134.5" stroke="none" font-size="10px" fill="black">R2 input sequence              file</text>

<text y="885" x="1134.5" stroke="none" font-size="10px" fill="black">full_genes</text>

<text y="900" x="1134.5" stroke="none" font-size="10px" fill="black">fragments</text>

<path d="M460 489L636 489" />

<circle cy="421" cx="302.25" r="5" fill="#ffffff" />

<circle cy="524" cx="302.25" r="5" fill="#ffffff" />

<path d="M867 447L999 447" />

<circle cy="579" cx="636.0" r="5" fill="#ffffff" />

<circle cy="534" cx="636.0" r="5" fill="#ffffff" />

<path d="M884.5 763L1016.5 763" />

<circle cy="534" cx="636.0" r="5" fill="#ffffff" />

<path d="M883.5 918L1015.5 918" />

<circle cy="579" cx="636.0" r="5" fill="#ffffff" />

<path d="M1198.5 534L1371.75 534" />

<circle cy="462" cx="999.0" r="5" fill="#ffffff" />

<path d="M1129.5 865L1322 865" />

<circle cy="933" cx="1015.5" r="5" fill="#ffffff" />

<circle cy="778" cx="1016.5" r="5" fill="#ffffff" />

</g>

</svg>

