<?xml version="1.0" standalone="no"?>
<!DOCTYPE svg PUBLIC "-//W3C//DTD SVG 1.1//EN" "http://www.w3.org/Graphics/SVG/1.1/DTD/svg11.dtd">

<svg style="stroke:black; fill:none; stroke-width:1px; stroke-linejoin:round; text-anchor:left" xmlns="http://www.w3.org/2000/svg" font-family="Helvetica, Arial, FreeSans, Sans, sans, sans-serif" height="1165px" width="1503.0px" version="1.1" xmlns:xlink="http://www.w3.org/1999/xlink" viewBox="0 0 1503.0 1165">

<g>

<g>

<defs>

<marker refY="3.6" refX="1.5" markerUnits="strokeWidth" viewBox="0 0 10.5 7.2" stroke="none" id="conn_1" markerWidth="10.5" fill="black" orient="auto" markerHeight="7.2">

<path d="M 1.5 3.6 L 0 0 L 10.5 3.6 L 0 7.2 L 1.5 3.6 Z" />

</marker>

</defs>

<path marker-end="url(#conn_1)" d="M307.25 486L401 491" />

</g>

<g>

<defs>

<marker refY="3.6" refX="1.5" markerUnits="strokeWidth" viewBox="0 0 10.5 7.2" stroke="none" id="conn_19" markerWidth="10.5" fill="black" orient="auto" markerHeight="7.2">

<path d="M 1.5 3.6 L 0 0 L 10.5 3.6 L 0 7.2 L 1.5 3.6 Z" />

</marker>

</defs>

<path marker-end="url(#conn_19)" d="M587 516L764.5 795" />

</g>

<g>

<defs>

<marker refY="3.6" refX="1.5" markerUnits="strokeWidth" viewBox="0 0 10.5 7.2" stroke="none" id="conn_37" markerWidth="10.5" fill="black" orient="auto" markerHeight="7.2">

<path d="M 1.5 3.6 L 0 0 L 10.5 3.6 L 0 7.2 L 1.5 3.6 Z" />

</marker>

</defs>

<path marker-end="url(#conn_37)" d="M587 516L1179.5 367" />

</g>

<g>

<defs>

<marker refY="3.6" refX="1.5" markerUnits="strokeWidth" viewBox="0 0 10.5 7.2" stroke="none" id="conn_55" markerWidth="10.5" fill="black" orient="auto" markerHeight="7.2">

<path d="M 1.5 3.6 L 0 0 L 10.5 3.6 L 0 7.2 L 1.5 3.6 Z" />

</marker>

</defs>

<path marker-end="url(#conn_55)" d="M956 820L1001.5 721" />

</g>

<g>

<defs>

<marker refY="3.6" refX="1.5" markerUnits="strokeWidth" viewBox="0 0 10.5 7.2" stroke="none" id="conn_73" markerWidth="10.5" fill="black" orient="auto" markerHeight="7.2">

<path d="M 1.5 3.6 L 0 0 L 10.5 3.6 L 0 7.2 L 1.5 3.6 Z" />

</marker>

</defs>

<path marker-end="url(#conn_73)" d="M956 835L1014.5 910" />

</g>

<g>

<defs>

<marker refY="3.6" refX="1.5" markerUnits="strokeWidth" viewBox="0 0 10.5 7.2" stroke="none" id="conn_91" markerWidth="10.5" fill="black" orient="auto" markerHeight="7.2">

<path d="M 1.5 3.6 L 0 0 L 10.5 3.6 L 0 7.2 L 1.5 3.6 Z" />

</marker>

</defs>

<path marker-end="url(#conn_91)" d="M1156.5 935L1250.5 830" />

</g>

<g>

<defs>

<marker refY="3.6" refX="1.5" markerUnits="strokeWidth" viewBox="0 0 10.5 7.2" stroke="none" id="conn_109" markerWidth="10.5" fill="black" orient="auto" markerHeight="7.2">

<path d="M 1.5 3.6 L 0 0 L 10.5 3.6 L 0 7.2 L 1.5 3.6 Z" />

</marker>

</defs>

<path marker-end="url(#conn_109)" d="M1143.5 746L1250.5 815" />

</g>

</g>

<g>

<path d="M195 446L302.25 446L302.25 476L195 476Z" fill="#EBD9B2" />

<path d="M195 476L302.25 476L302.25 496L195 496Z" fill="#ffffff" />

<path d="M406 446L582 446L582 476L406 476Z" fill="#EBD9B2" />

<path d="M406 476L582 476L582 646L406 646Z" fill="#ffffff" />

<path d="M769.5 750L951 750L951 780L769.5 780Z" fill="#EBD9B2" />

<path d="M769.5 780L951 780L951 845L769.5 845Z" fill="#ffffff" />

<path d="M1184.5 322L1357.75 322L1357.75 352L1184.5 352Z" fill="#EBD9B2" />

<path d="M1184.5 352L1357.75 352L1357.75 462L1184.5 462Z" fill="#ffffff" />

<path d="M1006.5 676L1138.5 676L1138.5 706L1006.5 706Z" fill="#EBD9B2" />

<path d="M1006.5 706L1138.5 706L1138.5 756L1006.5 756Z" fill="#ffffff" />

<path d="M1019.5 865L1151.5 865L1151.5 895L1019.5 895Z" fill="#EBD9B2" />

<path d="M1019.5 895L1151.5 895L1151.5 945L1019.5 945Z" fill="#ffffff" />

<path d="M1255.5 770L1448 770L1448 800L1255.5 800Z" fill="#EBD9B2" />

<path d="M1255.5 800L1448 800L1448 880L1255.5 880Z" fill="#ffffff" />

</g>

<g>

<text y="466" x="200" stroke="none" font-size="14px" fill="black">Input dataset</text>

<text y="491" x="200" stroke="none" font-size="10px" fill="black">output</text>

<text y="466" x="411" stroke="none" font-size="14px" fill="black">PRINSEQ</text>

<text y="491" x="411" stroke="none" font-size="10px" fill="black">FASTQ file</text>

<text y="521" x="411" stroke="none" font-size="10px" fill="black">good_sequence_file</text>

<text y="536" x="411" stroke="none" font-size="10px" fill="black">rejected_sequence_file</text>

<text y="551" x="411" stroke="none" font-size="10px" fill="black">good_sequences_1_file</text>

<text y="566" x="411" stroke="none" font-size="10px" fill="black">good_sequences_1_singletons_file</text>

<text y="581" x="411" stroke="none" font-size="10px" fill="black">rejected_sequence_1_file</text>

<text y="596" x="411" stroke="none" font-size="10px" fill="black">good_sequences_2_file</text>

<text y="611" x="411" stroke="none" font-size="10px" fill="black">good_sequences_2_singletons_file</text>

<text y="626" x="411" stroke="none" font-size="10px" fill="black">rejected_sequence_2_file</text>

<text y="641" x="411" stroke="none" font-size="10px" fill="black">html_file</text>

<text y="770" x="774.5" stroke="none" font-size="14px" fill="black">Split paired end reads</text>

<text y="795" x="774.5" stroke="none" font-size="10px" fill="black">Your paired-end file</text>

<text y="825" x="774.5" stroke="none" font-size="10px" fill="black">output1</text>

<text y="840" x="774.5" stroke="none" font-size="10px" fill="black">output2</text>

<text y="342" x="1189.5" stroke="none" font-size="14px" fill="black">Filter with SortMeRNA</text>

<text y="367" x="1189.5" stroke="none" font-size="10px" fill="black">Querying sequences</text>

<text y="397" x="1189.5" stroke="none" font-size="10px" fill="black">output_fastx</text>

<text y="412" x="1189.5" stroke="none" font-size="10px" fill="black">output_other</text>

<text y="427" x="1189.5" stroke="none" font-size="10px" fill="black">output_sam</text>

<text y="442" x="1189.5" stroke="none" font-size="10px" fill="black">output_blast</text>

<text y="457" x="1189.5" stroke="none" font-size="10px" fill="black">output_log</text>

<text y="696" x="1011.5" stroke="none" font-size="14px" fill="black">FASTQ to FASTA</text>

<text y="721" x="1011.5" stroke="none" font-size="10px" fill="black">FASTQ Library to convert</text>

<text y="751" x="1011.5" stroke="none" font-size="10px" fill="black">output</text>

<text y="885" x="1024.5" stroke="none" font-size="14px" fill="black">FASTQ to FASTA</text>

<text y="910" x="1024.5" stroke="none" font-size="10px" fill="black">FASTQ Library to convert</text>

<text y="940" x="1024.5" stroke="none" font-size="10px" fill="black">output</text>

<text y="790" x="1260.5" stroke="none" font-size="14px" fill="black">Reago</text>

<text y="815" x="1260.5" stroke="none" font-size="10px" fill="black">R1 input sequence              file</text>

<text y="830" x="1260.5" stroke="none" font-size="10px" fill="black">R2 input sequence              file</text>

<text y="860" x="1260.5" stroke="none" font-size="10px" fill="black">full_genes</text>

<text y="875" x="1260.5" stroke="none" font-size="10px" fill="black">fragments</text>

<path d="M406 501L582 501" />

<circle cy="486" cx="302.25" r="5" fill="#ffffff" />

<path d="M769.5 805L951 805" />

<circle cy="516" cx="582.0" r="5" fill="#ffffff" />

<path d="M1184.5 377L1357.75 377" />

<circle cy="516" cx="582.0" r="5" fill="#ffffff" />

<path d="M1006.5 731L1138.5 731" />

<circle cy="820" cx="951.0" r="5" fill="#ffffff" />

<path d="M1019.5 920L1151.5 920" />

<circle cy="835" cx="951.0" r="5" fill="#ffffff" />

<path d="M1255.5 840L1448 840" />

<circle cy="935" cx="1151.5" r="5" fill="#ffffff" />

<circle cy="746" cx="1138.5" r="5" fill="#ffffff" />

</g>

</svg>

